<svg viewBox="0 0 28 32" fill="none" xmlns="http://www.w3.org/2000/svg">
<g clip-path="url(#clip0_569_83)">
<path d="M20.9291 0.461867V6.62187C20.9289 6.78164 20.8876 6.93867 20.809 7.07778C20.7304 7.21689 20.6173 7.33339 20.4805 7.416L20.4421 7.43867L19.0005 8.26667L10.62 13.0885L9.60267 13.6736C9.60267 13.6736 9.60027 13.6736 9.59974 13.6763C9.58266 13.6832 9.56646 13.6922 9.55147 13.7029C9.48817 13.7454 9.43629 13.8028 9.40042 13.8701C9.36455 13.9374 9.34578 14.0124 9.34578 14.0887C9.34578 14.1649 9.36455 14.24 9.40042 14.3072C9.43629 14.3745 9.48817 14.4319 9.55147 14.4744C9.56373 14.4828 9.57656 14.4904 9.58987 14.4971L10.7424 15.16L14.6645 17.4163C14.6656 17.4164 14.6665 17.4168 14.6672 17.4176L14.7368 17.4584C14.7983 17.5008 14.8486 17.5575 14.8833 17.6237C14.918 17.6898 14.9362 17.7634 14.9362 17.8381C14.9362 17.9128 14.918 17.9864 14.8833 18.0526C14.8486 18.1187 14.7983 18.1754 14.7368 18.2179L14.6688 18.2563L7.49921 22.3827L7.45947 22.4053C7.32369 22.4797 7.17133 22.5185 7.01654 22.5181C6.87703 22.5178 6.73932 22.4866 6.61334 22.4267L6.57361 22.4056L6.51254 22.3701L2.36214 19.9827L0.986939 19.1909C0.973631 19.1842 0.960721 19.1767 0.948272 19.1685C0.814618 19.0881 0.703734 18.9748 0.626139 18.8395C0.543012 18.6991 0.499426 18.5389 0.500006 18.3757V11.9467C0.499839 11.7892 0.539931 11.6343 0.616475 11.4967C0.693019 11.3592 0.803471 11.2434 0.937339 11.1605C0.940612 11.1575 0.944293 11.155 0.948272 11.1531C0.963207 11.1431 0.978799 11.1342 0.994939 11.1264C0.997333 11.1253 0.999574 11.1238 1.00161 11.1221L2.36161 10.3392L6.95067 7.6992L12.4827 4.51973L20.204 0.0800003C20.2164 0.0716696 20.2293 0.0641858 20.2427 0.0576003C20.3104 0.0197555 20.3867 -7.705e-05 20.4643 3.07832e-07C20.5875 -0.000141359 20.7057 0.0486196 20.7929 0.135571C20.8802 0.222523 20.9293 0.340553 20.9296 0.463734L20.9291 0.461867Z" fill="#01ABFF"/>
<path d="M27.3802 13.6237V20.0517C27.3803 20.2113 27.339 20.3682 27.2604 20.5071C27.1819 20.646 27.0687 20.7623 26.932 20.8445C26.9189 20.8531 26.9053 20.8603 26.8933 20.8672L25.5181 21.6589L23.7784 22.6595L20.9293 24.2981L15.3981 27.4803L7.67784 31.92C7.66554 31.9283 7.65271 31.9358 7.63944 31.9424C7.57126 31.98 7.49462 31.9995 7.41677 31.9992C7.29352 31.9993 7.17525 31.9505 7.08795 31.8635C7.00065 31.7765 6.95145 31.6584 6.95117 31.5352V25.3752C6.95113 25.2156 6.9924 25.0587 7.07095 24.9198C7.1495 24.7809 7.26266 24.6646 7.39944 24.5824C7.41784 24.5707 7.43757 24.5597 7.4565 24.5501L8.87997 23.7301L17.2602 18.9096L18.2645 18.3323C18.2653 18.3325 18.2661 18.3325 18.2669 18.3323L18.3312 18.2957C18.3334 18.2941 18.3357 18.2927 18.3381 18.2915C18.3994 18.2487 18.4495 18.1918 18.4841 18.1256C18.5187 18.0593 18.5368 17.9857 18.5368 17.9109C18.5363 17.8348 18.5174 17.7599 18.4816 17.6927C18.4457 17.6256 18.3941 17.5681 18.3312 17.5253C18.3165 17.5152 18.3009 17.5062 18.2848 17.4987L17.1381 16.8387L13.2149 14.5811C13.2141 14.5813 13.2133 14.5813 13.2125 14.5811L13.1373 14.5371H13.136C13.076 14.4946 13.0271 14.4384 12.9932 14.3731C12.9594 14.3079 12.9417 14.2355 12.9415 14.162C12.9413 14.0885 12.9588 14.016 12.9923 13.9507C13.0259 13.8853 13.0746 13.8289 13.1344 13.7861C13.1344 13.7861 13.1344 13.7861 13.1368 13.7861L13.2149 13.7411C13.2186 13.7384 13.2225 13.7362 13.2266 13.7344L20.3733 9.62292L20.429 9.59066C20.5621 9.52066 20.71 9.48388 20.8603 9.48346C21.0107 9.48305 21.1588 9.519 21.2922 9.58826L21.3533 9.62372L25.5176 12.0189L26.893 12.8104C26.9062 12.8172 26.9191 12.8248 26.9314 12.8331C27.0652 12.9135 27.1761 13.0268 27.2538 13.1621C27.3369 13.3025 27.3804 13.4628 27.3797 13.6259L27.3802 13.6237Z" fill="#0057FF"/>
</g>
<defs>
<clipPath id="clip0_569_83">
<rect width="26.88" height="32" fill="white" transform="translate(0.5)"/>
</clipPath>
</defs>
</svg>
